<svg xmlns="http://www.w3.org/2000/svg" xmlns:xlink="http://www.w3.org/1999/xlink" width="710" height="570.533" viewBox="0 0 710 570.533">
  <defs>
    <linearGradient id="linear-gradient" x1="1.173" y1="0.08" x2="-0.218" y2="1.148" gradientUnits="objectBoundingBox">
      <stop offset="0" stop-color="#0d8d98"/>
      <stop offset="0.002" stop-color="#0d8d98" stop-opacity="0.51"/>
      <stop offset="0.992" stop-color="#ffe8dc" stop-opacity="0"/>
      <stop offset="1" stop-color="#ffe8dc" stop-opacity="0"/>
    </linearGradient>
  </defs>
  <g id="envelope" transform="translate(-0.008 0.006)">
    <path id="Path_375" data-name="Path 375" d="M495.063,99.421c-45.52-1.31-88.871-13.55-130.24-26.941s-82.436-28.2-126.865-35.3c-28.574-4.562-61.251-5.207-84.275,7.547C131.524,57,124.368,78.195,120.519,97.864c-2.9,14.791-4.6,30.365,3.334,44.209,5.488,9.6,15.292,17.693,22.057,26.9,23.532,32.046,6.9,71.555-18.606,102.839-11.965,14.675-25.844,28.677-35.078,44.3S78.739,349.645,86.8,365.562c8.006,15.779,27.085,27.655,47.756,36,41.98,16.945,91.451,21.8,139.687,24.547,106.777,6.078,214.131,3.43,321.2.81,39.62-.974,79.418-1.962,118.4-7.066,21.645-2.833,43.99-7.327,59.687-18.18,19.95-13.776,24.89-37.109,11.526-54.383-22.42-28.979-84.385-36.176-100.088-67.274-8.631-17.117.233-36.189,12.767-52.065,26.893-34.056,71.974-63.933,74.348-102.86,1.626-26.756-20.04-53.512-53.547-66.163C683.412,45.669,634.709,47.336,608.763,69.29,582.137,91.888,535.252,100.608,495.063,99.421Z" transform="translate(-82.53 -34.2)" fill="url(#linear-gradient)"/>
    <ellipse id="Ellipse_9" data-name="Ellipse 9" cx="199.47" cy="20.115" rx="199.47" ry="20.115" transform="translate(99.274 530.297)" fill="#6c63ff" opacity="0.1"/>
    <circle id="Ellipse_10" data-name="Ellipse 10" cx="0.247" cy="0.247" r="0.247" transform="translate(472.652 230.313)" fill="#e6e8ec"/>
    <path id="Path_462" data-name="Path 462" d="M499.98,246.808,320.57,363.2,437.652,574.371a8.17,8.17,0,0,0,5.214,3.979L548.95,604.228a8.178,8.178,0,0,0,9.289-4.4l52.62-109.323,57.67-77.092L531.675,251.508A24.252,24.252,0,0,0,499.98,246.808Z" transform="translate(-157.259 -99.727)" fill="#dcdfed"/>
    <path id="Path_463" data-name="Path 463" d="M671.186,414.742l-.508.686L636.9,460.59l-.611.816-22.77,30.44-45.005,93.516-1.262,2.614L560.9,601.17a8.178,8.178,0,0,1-9.3,4.4L445.509,579.676a8.157,8.157,0,0,1-5.214-3.979l-10.2-18.366-1.832-3.307L354.628,421.163,354,420.031l-30.776-55.5,3.718-2.415,28.19-18.283.652-.425,59.364-38.515,3.746-2.429,83.733-54.329a24.245,24.245,0,0,1,31.709,4.693l62.431,73.888,2.744,3.293,45.314,53.608.247.295,22.784,26.948,2.868,3.4Z" transform="translate(-158.091 -100.14)" opacity="0.1"/>
    <path id="Path_464" data-name="Path 464" d="M656.061,409.228l-5.53,38.419-1.667,11.594-.954,24.7-.075,1.928-4.96,129.047a8.185,8.185,0,0,1-9.955,7.663L579.45,610.64l-.576-.13L441.738,579.9l-2.518-.563-75.39-16.836,1.729-116.025.055-3.876.521-35.119.576-38.762,59.364-38.515,3.746-2.429c55.063,5.646,128.292,16.506,177.9,24.252l2.744,3.293,45.279,53.608Z" transform="translate(-170.841 -126.37)" opacity="0.1"/>
    <path id="Path_465" data-name="Path 465" d="M662.011,363.2,655.5,408.483l-5.969,41.465-1.667,11.567-.954,24.7-5.036,130.974a8.185,8.185,0,0,1-9.955,7.663l-54.047-12.068-137.135-30.6-77.908-17.4,1.784-119.9.521-35.119.611-41.081.624-42.254c12.884-.611,34.083.768,59.392,3.314,56.668,5.687,133.918,17.192,184.425,25.116C641.114,359.7,662.011,363.2,662.011,363.2Z" transform="translate(-170.527 -125.9)" fill="#0d8d98"/>
    <path id="Path_466" data-name="Path 466" d="M665.267,463.474l-29,14.222-148,72.584L351.871,437.555,324.3,414.73l-3.718,2.415,30.776,55.5-1.784,119.9,77.908,17.4,10.181,18.366a8.158,8.158,0,0,0,5.214,3.979L548.96,658.169a8.178,8.178,0,0,0,9.282-4.4l6.353-13.193,54.047,12.068a8.185,8.185,0,0,0,9.955-7.663l5.036-130.974,34.392-45.965.1-1.159Z" transform="translate(-157.263 -153.668)" opacity="0.1"/>
    <path id="Path_467" data-name="Path 467" d="M314.966,418.25,302.734,627.723a8.178,8.178,0,0,0,6.387,8.459l324.86,72.138a8.178,8.178,0,0,0,9.9-7.32l19.038-232.538-180.26,88.412Z" transform="translate(-151.655 -154.773)" fill="#dcdfed"/>
    <path id="Path_468" data-name="Path 468" d="M305.691,682.1,474.46,577.978a12.39,12.39,0,0,1,15.779,2.47L641.295,756.619c.549.631.816.178,0,0L305.691,682.1C304.731,681.888,304.854,682.6,305.691,682.1Z" transform="translate(-152.376 -204.355)" opacity="0.1"/>
    <path id="Path_469" data-name="Path 469" d="M307.359,683.284l167.026-100.9a13.1,13.1,0,0,1,16.657,2.621l149.69,172.151a1.8,1.8,0,0,1-1.749,2.943L307.9,686.584a1.8,1.8,0,0,1-.542-3.3Z" transform="translate(-152.837 -205.711)" fill="#e3e5f1"/>
  </g>
</svg>
